<?xml version="1.0" encoding="utf-8"?>
<!-- Generator: Adobe Illustrator 25.0.1, SVG Export Plug-In . SVG Version: 6.00 Build 0)  -->
<svg version="1.1" id="Layer_1" xmlns="http://www.w3.org/2000/svg" xmlns:xlink="http://www.w3.org/1999/xlink" x="0px" y="0px"
	 viewBox="0 0 587.45 202" style="enable-background:new 0 0 587.45 202;" xml:space="preserve">
<style type="text/css">
	.st0{fill:#B8B8B8;}
	.st1{fill:#1D1D1B;}
	.st2{fill:#FFFFFF;}
	.st3{fill:#7A7A7A;}
	.st4{fill:#404040;}
</style>
<g>
	<g>
		<rect x="41.21" y="41" class="st0" width="60" height="60"/>
		<g>
			<rect x="42.53" y="71" class="st1" width="57.35" height="28.68"/>
		</g>
		<path class="st1" d="M64.93,49.39l-5.65,13.47H55.6l-2.78-10.75c-0.17-0.66-0.32-0.9-0.83-1.18c-0.84-0.46-2.22-0.88-3.44-1.15
			l0.08-0.39h5.93c0.76,0,1.44,0.5,1.61,1.37l1.47,7.8l3.63-9.17H64.93z M79.37,58.46c0.02-3.56-4.92-3.75-4.88-5.34
			c0.01-0.48,0.47-1,1.48-1.13c0.5-0.06,1.88-0.12,3.44,0.6l0.61-2.86c-0.84-0.3-1.92-0.6-3.26-0.6c-3.45,0-5.87,1.83-5.89,4.45
			c-0.02,1.94,1.73,3.02,3.05,3.67c1.36,0.66,1.81,1.08,1.81,1.67c-0.01,0.9-1.08,1.3-2.08,1.32c-1.75,0.03-2.77-0.47-3.58-0.85
			l-0.63,2.95c0.82,0.37,2.32,0.7,3.87,0.71C76.96,63.07,79.36,61.26,79.37,58.46 M88.47,62.86h3.22l-2.82-13.47H85.9
			c-0.67,0-1.23,0.39-1.48,0.99l-5.23,12.49h3.66l0.73-2.01h4.47L88.47,62.86z M84.58,58.09l1.83-5.06l1.06,5.06H84.58z
			 M69.91,49.39l-2.88,13.47h-3.49l2.88-13.47H69.91z"/>
		<g>
			<path class="st0" d="M55.19,87.62c0.39,0.23,1.01,0.43,1.65,0.43c0.79,0,1.23-0.37,1.23-0.93c0-0.51-0.34-0.82-1.2-1.13
				c-1.13-0.39-1.85-1-1.85-1.97c0-1.12,0.93-1.96,2.41-1.96c0.74,0,1.27,0.16,1.63,0.33l-0.29,1.01c-0.25-0.13-0.73-0.32-1.36-0.32
				c-0.79,0-1.12,0.41-1.12,0.82c0,0.52,0.39,0.77,1.3,1.11c1.18,0.45,1.75,1.05,1.75,2.02c0,1.1-0.83,2.04-2.57,2.04
				c-0.73,0-1.47-0.2-1.85-0.42L55.19,87.62z"/>
			<path class="st0" d="M64.15,85.95h-2.56v2h2.87v1.02h-4.11v-6.8h3.96v1.02h-2.72v1.76h2.56V85.95z"/>
			<path class="st0" d="M70.32,88.77c-0.29,0.14-0.94,0.3-1.77,0.3c-2.16,0-3.47-1.35-3.47-3.42c0-2.24,1.56-3.58,3.64-3.58
				c0.82,0,1.39,0.16,1.65,0.29l-0.26,0.99c-0.32-0.14-0.78-0.26-1.33-0.26c-1.38,0-2.38,0.87-2.38,2.5c0,1.49,0.87,2.44,2.37,2.44
				c0.49,0,1.02-0.1,1.35-0.24L70.32,88.77z"/>
			<path class="st0" d="M72.51,82.16v3.97c0,1.33,0.56,1.95,1.39,1.95c0.9,0,1.43-0.62,1.43-1.95v-3.97h1.24v3.89
				c0,2.1-1.08,3.03-2.72,3.03c-1.57,0-2.59-0.88-2.59-3.02v-3.9H72.51z"/>
			<path class="st0" d="M77.9,82.27c0.47-0.09,1.16-0.15,1.88-0.15c0.98,0,1.64,0.16,2.1,0.55c0.37,0.31,0.59,0.79,0.59,1.37
				c0,0.88-0.6,1.47-1.24,1.7v0.03c0.49,0.18,0.79,0.66,0.95,1.31c0.22,0.85,0.4,1.64,0.54,1.9h-1.27c-0.1-0.2-0.27-0.76-0.45-1.6
				c-0.2-0.89-0.51-1.17-1.22-1.19h-0.63v2.8H77.9V82.27z M79.14,85.26h0.74c0.84,0,1.35-0.44,1.35-1.12c0-0.74-0.51-1.09-1.32-1.09
				c-0.39,0-0.65,0.03-0.77,0.06V85.26z"/>
			<path class="st0" d="M87.35,85.95h-2.56v2h2.87v1.02h-4.11v-6.8h3.96v1.02h-2.72v1.76h2.56V85.95z"/>
		</g>
	</g>
	<g>
		<g>
			<g>
				<path id="XMLID_8_" class="st2" d="M169.74,100.31v-3.97c0-1.5-0.95-2.5-2.49-2.52c-0.81-0.01-1.64,0.24-2.22,1.13
					c-0.44-0.7-1.13-1.13-2.09-1.13c-0.68,0-1.34,0.2-1.85,0.94v-0.78h-1.38v6.33h1.39V96.8c0-1.1,0.61-1.68,1.55-1.68
					c0.91,0,1.38,0.6,1.38,1.67v3.52h1.39V96.8c0-1.1,0.64-1.68,1.55-1.68c0.94,0,1.39,0.6,1.39,1.67v3.52H169.74z M190.31,93.98
					h-2.25v-1.92h-1.39v1.92h-1.28v1.26h1.28v2.89c0,1.47,0.57,2.34,2.2,2.34c0.6,0,1.28-0.19,1.72-0.49l-0.4-1.18
					c-0.41,0.24-0.86,0.36-1.22,0.36c-0.69,0-0.91-0.42-0.91-1.06v-2.86h2.25V93.98z M202.06,93.83c-0.79,0-1.31,0.37-1.67,0.93
					v-0.77h-1.36v6.33h1.38v-3.55c0-1.05,0.45-1.63,1.35-1.63c0.28,0,0.57,0.04,0.86,0.16l0.42-1.3
					C202.73,93.88,202.33,93.83,202.06,93.83L202.06,93.83z M184.3,94.49c-0.66-0.44-1.58-0.66-2.58-0.66
					c-1.6,0-2.63,0.77-2.63,2.03c0,1.03,0.77,1.67,2.18,1.87l0.65,0.09c0.75,0.11,1.11,0.3,1.11,0.66c0,0.49-0.5,0.77-1.44,0.77
					c-0.95,0-1.64-0.3-2.11-0.66l-0.65,1.07c0.75,0.56,1.71,0.82,2.74,0.82c1.83,0,2.89-0.86,2.89-2.07c0-1.11-0.83-1.69-2.21-1.89
					l-0.65-0.09c-0.6-0.08-1.07-0.2-1.07-0.62c0-0.46,0.45-0.74,1.2-0.74c0.81,0,1.59,0.3,1.97,0.54L184.3,94.49z M221.19,93.83
					c-0.79,0-1.31,0.37-1.67,0.93v-0.77h-1.36v6.33h1.38v-3.55c0-1.05,0.45-1.63,1.35-1.63c0.28,0,0.57,0.04,0.86,0.16l0.42-1.3
					C221.86,93.88,221.47,93.83,221.19,93.83L221.19,93.83z M203.45,97.15c0,1.92,1.34,3.32,3.38,3.32c0.95,0,1.59-0.21,2.28-0.75
					l-0.66-1.11c-0.52,0.37-1.06,0.57-1.66,0.57c-1.1-0.01-1.91-0.81-1.91-2.03c0-1.22,0.81-2.01,1.91-2.03
					c0.6,0,1.14,0.2,1.66,0.57l0.66-1.11c-0.69-0.54-1.32-0.75-2.28-0.75C204.78,93.83,203.45,95.23,203.45,97.15L203.45,97.15z
					 M216.34,97.15v-3.16h-1.38v0.77c-0.44-0.57-1.1-0.93-2-0.93c-1.77,0-3.16,1.39-3.16,3.32c0,1.93,1.39,3.32,3.16,3.32
					c0.9,0,1.56-0.36,2-0.93v0.77h1.38V97.15z M211.22,97.15c0-1.11,0.73-2.03,1.92-2.03c1.14,0,1.91,0.87,1.91,2.03
					c0,1.15-0.77,2.03-1.91,2.03C211.95,99.17,211.22,98.26,211.22,97.15L211.22,97.15z M194.6,93.83c-1.85,0-3.15,1.35-3.15,3.32
					c0,2.01,1.35,3.32,3.24,3.32c0.95,0,1.83-0.24,2.6-0.89l-0.68-1.02c-0.53,0.42-1.2,0.66-1.84,0.66c-0.89,0-1.69-0.41-1.89-1.55
					h4.7c0.01-0.17,0.03-0.34,0.03-0.53C197.59,95.18,196.38,93.83,194.6,93.83L194.6,93.83z M194.58,95.06
					c0.89,0,1.46,0.56,1.6,1.54h-3.28C193.04,95.68,193.6,95.06,194.58,95.06L194.58,95.06z M229.12,97.15v-5.71h-1.38v3.31
					c-0.44-0.57-1.1-0.93-2-0.93c-1.77,0-3.16,1.39-3.16,3.32c0,1.93,1.39,3.32,3.16,3.32c0.9,0,1.56-0.36,2-0.93v0.77h1.38V97.15z
					 M224,97.15c0-1.11,0.73-2.03,1.92-2.03c1.14,0,1.91,0.87,1.91,2.03c0,1.15-0.77,2.03-1.91,2.03
					C224.72,99.17,224,98.26,224,97.15L224,97.15z M177.5,97.15v-3.16h-1.38v0.77c-0.44-0.57-1.1-0.93-2-0.93
					c-1.77,0-3.16,1.39-3.16,3.32c0,1.93,1.39,3.32,3.16,3.32c0.9,0,1.56-0.36,2-0.93v0.77h1.38V97.15z M172.37,97.15
					c0-1.11,0.73-2.03,1.92-2.03c1.14,0,1.91,0.87,1.91,2.03c0,1.15-0.77,2.03-1.91,2.03C173.1,99.17,172.37,98.26,172.37,97.15z
					 M231.42,99.4c0.09,0,0.17,0.02,0.25,0.05c0.08,0.03,0.15,0.08,0.2,0.13c0.06,0.06,0.1,0.12,0.14,0.2s0.05,0.16,0.05,0.24
					c0,0.09-0.02,0.17-0.05,0.24c-0.03,0.08-0.08,0.14-0.14,0.2c-0.06,0.06-0.13,0.1-0.2,0.14c-0.08,0.03-0.16,0.05-0.25,0.05
					c-0.09,0-0.17-0.02-0.25-0.05c-0.08-0.03-0.15-0.08-0.2-0.14c-0.06-0.06-0.1-0.12-0.14-0.2c-0.03-0.08-0.05-0.16-0.05-0.24
					c0-0.09,0.02-0.17,0.05-0.24c0.03-0.08,0.08-0.14,0.14-0.2c0.06-0.06,0.13-0.1,0.2-0.13C231.24,99.41,231.33,99.4,231.42,99.4z
					 M231.42,100.52c0.07,0,0.13-0.01,0.19-0.04c0.06-0.03,0.11-0.06,0.15-0.1c0.04-0.04,0.08-0.1,0.1-0.16
					c0.03-0.06,0.04-0.12,0.04-0.19s-0.01-0.13-0.04-0.19c-0.03-0.06-0.06-0.11-0.1-0.16c-0.04-0.04-0.1-0.08-0.15-0.1
					c-0.06-0.03-0.12-0.04-0.19-0.04c-0.07,0-0.13,0.01-0.19,0.04c-0.06,0.03-0.11,0.06-0.16,0.1c-0.04,0.04-0.08,0.1-0.1,0.16
					c-0.03,0.06-0.04,0.12-0.04,0.19s0.01,0.13,0.04,0.19c0.03,0.06,0.06,0.11,0.1,0.16c0.04,0.04,0.1,0.08,0.16,0.1
					C231.28,100.5,231.35,100.52,231.42,100.52z M231.45,99.73c0.08,0,0.13,0.02,0.17,0.05c0.04,0.03,0.06,0.08,0.06,0.14
					c0,0.05-0.02,0.09-0.05,0.12c-0.03,0.03-0.08,0.05-0.14,0.06l0.19,0.22h-0.15l-0.18-0.22h-0.06v0.22h-0.12v-0.58H231.45z
					 M231.31,99.84V100h0.14c0.03,0,0.06-0.01,0.08-0.02c0.02-0.01,0.03-0.03,0.03-0.06c0-0.03-0.01-0.04-0.03-0.06
					c-0.02-0.01-0.05-0.02-0.08-0.02H231.31z"/>
			</g>
			<g id="XMLID_3_">
				<rect x="183.84" y="45.75" class="st3" width="20.86" height="37.48"/>
				<path id="XMLID_7_" class="st4" d="M185.17,64.49c0-7.6,3.56-14.38,9.1-18.74c-4.05-3.19-9.17-5.1-14.73-5.1
					c-13.16,0-23.83,10.67-23.83,23.84c0,13.16,10.67,23.84,23.83,23.84c5.56,0,10.68-1.9,14.73-5.1
					C188.73,78.87,185.17,72.09,185.17,64.49z"/>
				<path class="st2" d="M230.56,79.26v-0.77h0.31v-0.16h-0.79v0.16h0.31v0.77H230.56z M232.09,79.26v-0.93h-0.24l-0.28,0.64
					l-0.28-0.64h-0.24v0.93h0.17v-0.7l0.26,0.6h0.18l0.26-0.6v0.7H232.09z"/>
				<path class="st0" d="M232.84,64.49c0,13.16-10.67,23.84-23.83,23.84c-5.56,0-10.68-1.9-14.73-5.1c5.54-4.36,9.1-11.14,9.1-18.74
					s-3.56-14.38-9.1-18.74c4.05-3.19,9.17-5.1,14.73-5.1C222.17,40.65,232.84,51.33,232.84,64.49z"/>
			</g>
		</g>
	</g>
	<g>
		<path id="Outline" class="st0" d="M369.84,43.43c3.71,0,7.31,0.73,10.7,2.17c3.29,1.4,6.23,3.39,8.78,5.92
			c2.54,2.54,4.53,5.49,5.92,8.78c1.44,3.39,2.18,6.99,2.18,10.69s-0.74,7.31-2.18,10.69c-1.39,3.28-3.39,6.22-5.92,8.78
			c-2.54,2.54-5.49,4.53-8.78,5.92c-3.39,1.44-6.99,2.18-10.7,2.18h-52.8c-3.7,0-7.3-0.74-10.7-2.18c-3.28-1.39-6.22-3.39-8.77-5.92
			c-2.54-2.54-4.53-5.49-5.92-8.78c-1.44-3.39-2.18-6.99-2.18-10.69s0.74-7.31,2.18-10.69c1.39-3.28,3.39-6.22,5.92-8.77
			c2.54-2.53,5.49-4.53,8.77-5.92c3.39-1.44,6.99-2.18,10.7-2.18H369.84 M369.84,41h-52.8c-16.5,0-30,13.5-30,30l0,0
			c0,16.5,13.5,30,30,30h52.8c16.5,0,30-13.5,30-30l0,0C399.84,54.5,386.34,41,369.84,41L369.84,41z"/>
		<g id="G_Pay_Lockup_1_">
			<g id="Pay_Typeface_3_">
				<path id="Letter_p_3_" class="st0" d="M340.83,73.13v9.07h-2.88V59.79h7.64c1.93,0,3.59,0.64,4.93,1.93
					c1.38,1.29,2.07,2.87,2.07,4.72c0,1.91-0.69,3.48-2.07,4.76c-1.33,1.28-2.98,1.9-4.93,1.9h-4.76V73.13z M340.83,62.56v7.82h4.82
					c1.14,0,2.1-0.39,2.85-1.15c0.76-0.77,1.15-1.69,1.15-2.75c0-1.03-0.39-1.95-1.15-2.72c-0.75-0.79-1.7-1.18-2.85-1.18h-4.82
					V62.56z"/>
				<path id="Letter_a_3_" class="st0" d="M360.12,66.36c2.13,0,3.81,0.57,5.04,1.71c1.23,1.14,1.85,2.7,1.85,4.68v9.45h-2.74v-2.13
					h-0.12c-1.18,1.76-2.77,2.62-4.76,2.62c-1.7,0-3.11-0.49-4.24-1.5c-1.14-1-1.71-2.25-1.71-3.75c0-1.59,0.6-2.85,1.8-3.78
					c1.2-0.94,2.8-1.41,4.8-1.41c1.71,0,3.12,0.31,4.21,0.94v-0.66c0-1.01-0.39-1.85-1.18-2.55s-1.73-1.05-2.79-1.05
					c-1.6,0-2.88,0.67-3.81,2.04l-2.54-1.59C355.32,67.37,357.39,66.36,360.12,66.36z M356.4,77.49c0,0.75,0.32,1.38,0.96,1.88
					c0.63,0.5,1.38,0.75,2.23,0.75c1.21,0,2.3-0.45,3.24-1.35c0.95-0.9,1.43-1.95,1.43-3.17c-0.9-0.71-2.14-1.07-3.75-1.07
					c-1.17,0-2.14,0.29-2.93,0.84C356.79,75.97,356.4,76.67,356.4,77.49z"/>
				<path id="Letter_y_3_" class="st0" d="M382.66,66.86l-9.6,22.08h-2.97l3.57-7.72l-6.33-14.35h3.13l4.56,11.01h0.06l4.44-11.01
					H382.66z"/>
			</g>
			<g id="G_Mark_1_">
				<path id="Blue_500" class="st0" d="M329.37,71.3c0-0.94-0.08-1.84-0.24-2.7h-12.07v4.95l6.95,0c-0.28,1.65-1.19,3.05-2.58,3.99
					v3.21h4.14C327.99,78.51,329.37,75.21,329.37,71.3z"/>
				<path id="Green_500_1_" class="st0" d="M321.44,77.54c-1.15,0.78-2.64,1.23-4.37,1.23c-3.35,0-6.2-2.26-7.21-5.3h-4.27v3.31
					c2.11,4.2,6.46,7.08,11.48,7.08c3.47,0,6.39-1.14,8.51-3.11L321.44,77.54z"/>
				<path id="Yellow_500_1_" class="st0" d="M309.45,71.01c0-0.86,0.14-1.68,0.4-2.46v-3.31h-4.27c-0.87,1.74-1.37,3.69-1.37,5.77
					c0,2.08,0.49,4.03,1.37,5.77l4.27-3.31C309.59,72.69,309.45,71.86,309.45,71.01z"/>
				<path id="Red_500" class="st0" d="M317.06,63.24c1.89,0,3.59,0.65,4.93,1.93l3.67-3.66c-2.23-2.07-5.13-3.35-8.6-3.35
					c-5.02,0-9.37,2.88-11.48,7.08l4.27,3.31C310.87,65.5,313.71,63.24,317.06,63.24z"/>
			</g>
		</g>
	</g>
	<g>
		<path class="st0" d="M546.24,48.43c0-0.27,0-0.54-0.01-0.81c-0.02-0.59-0.05-1.18-0.16-1.76c-0.1-0.59-0.28-1.14-0.55-1.68
			c-0.27-0.53-0.62-1.01-1.04-1.43c-0.42-0.42-0.9-0.77-1.43-1.04c-0.54-0.27-1.09-0.45-1.67-0.55c-0.58-0.1-1.18-0.14-1.76-0.16
			c-0.27-0.01-0.54-0.01-0.81-0.01c-0.32,0-0.64,0-0.96,0h-76.94c-0.32,0-0.64,0-0.96,0c-0.27,0-0.54,0-0.81,0.01
			c-0.59,0.02-1.18,0.05-1.76,0.16c-0.59,0.11-1.14,0.28-1.68,0.55c-0.53,0.27-1.01,0.62-1.43,1.04c-0.42,0.42-0.77,0.9-1.04,1.43
			c-0.27,0.54-0.45,1.09-0.55,1.68c-0.1,0.58-0.14,1.17-0.16,1.76c-0.01,0.27-0.01,0.54-0.01,0.81c0,0.32,0,0.64,0,0.96v43.21
			c0,0.32,0,0.64,0,0.96c0,0.27,0,0.54,0.01,0.81c0.02,0.59,0.05,1.18,0.16,1.76c0.11,0.59,0.28,1.14,0.55,1.68
			c0.27,0.53,0.62,1.01,1.04,1.43c0.42,0.42,0.9,0.77,1.43,1.04c0.54,0.27,1.09,0.45,1.68,0.55c0.58,0.1,1.17,0.14,1.76,0.15
			c0.27,0.01,0.54,0.01,0.81,0.01c0.32,0,0.64,0,0.96,0h76.94c0.32,0,0.64,0,0.96,0c0.27,0,0.54,0,0.81-0.01
			c0.59-0.02,1.18-0.05,1.76-0.15c0.59-0.11,1.14-0.28,1.67-0.55c0.53-0.27,1.01-0.62,1.43-1.04c0.42-0.42,0.77-0.9,1.04-1.43
			c0.27-0.54,0.45-1.09,0.55-1.68c0.11-0.58,0.14-1.17,0.16-1.76c0.01-0.27,0.01-0.54,0.01-0.81c0-0.32,0-0.64,0-0.96V49.39
			C546.24,49.07,546.24,48.75,546.24,48.43z M544.24,92.61c0,0.32,0,0.63,0,0.95c0,0.25,0,0.51-0.01,0.76
			c-0.01,0.45-0.04,0.98-0.12,1.47c-0.08,0.42-0.19,0.78-0.36,1.12c-0.17,0.34-0.4,0.65-0.67,0.92c-0.27,0.27-0.58,0.5-0.92,0.67
			c-0.34,0.17-0.7,0.29-1.12,0.37c-0.5,0.09-1.05,0.11-1.46,0.12c-0.26,0.01-0.52,0.01-0.78,0.01c-0.31,0-0.63,0-0.95,0h-76.94
			c0,0-0.01,0-0.01,0c-0.31,0-0.62,0-0.94,0c-0.26,0-0.52,0-0.77-0.01c-0.42-0.01-0.97-0.04-1.46-0.12
			c-0.42-0.08-0.78-0.19-1.12-0.37c-0.34-0.17-0.65-0.4-0.92-0.67c-0.27-0.27-0.49-0.58-0.67-0.92c-0.17-0.34-0.29-0.7-0.37-1.12
			c-0.09-0.49-0.11-1.01-0.12-1.46c-0.01-0.26-0.01-0.51-0.01-0.77l0-0.75l0-0.2V49.39l0-0.2l0-0.75c0-0.26,0-0.51,0.01-0.77
			c0.01-0.45,0.04-0.97,0.13-1.46c0.08-0.42,0.19-0.78,0.37-1.12c0.17-0.34,0.4-0.65,0.67-0.92c0.27-0.27,0.58-0.49,0.92-0.67
			c0.34-0.17,0.7-0.29,1.12-0.37c0.49-0.09,1.01-0.11,1.46-0.12c0.26-0.01,0.51-0.01,0.77-0.01l0.95,0h76.94l0.95,0
			c0.26,0,0.51,0,0.77,0.01c0.45,0.01,0.97,0.04,1.46,0.12c0.43,0.08,0.78,0.19,1.12,0.37c0.34,0.17,0.65,0.4,0.92,0.67
			c0.27,0.27,0.5,0.58,0.67,0.92c0.17,0.34,0.29,0.69,0.36,1.12c0.09,0.48,0.11,1.01,0.12,1.46c0.01,0.25,0.01,0.51,0.01,0.77
			c0,0.32,0,0.63,0,0.95V92.61z"/>
		<g>
			<g>
				<path class="st0" d="M478.1,61.18c0.8-1,1.35-2.35,1.2-3.73c-1.17,0.06-2.61,0.77-3.44,1.78c-0.75,0.86-1.4,2.26-1.23,3.58
					C475.95,62.93,477.27,62.16,478.1,61.18"/>
				<path class="st0" d="M479.29,63.07c-1.92-0.11-3.54,1.09-4.46,1.09c-0.92,0-2.32-1.03-3.83-1c-1.97,0.03-3.8,1.14-4.8,2.92
					c-2.06,3.55-0.54,8.81,1.46,11.7c0.97,1.43,2.14,3,3.69,2.95c1.46-0.06,2.03-0.94,3.8-0.94c1.77,0,2.29,0.94,3.83,0.92
					c1.6-0.03,2.6-1.43,3.57-2.86c1.11-1.63,1.57-3.2,1.6-3.29c-0.03-0.03-3.09-1.2-3.11-4.72c-0.03-2.94,2.4-4.35,2.51-4.43
					C482.18,63.36,480.03,63.13,479.29,63.07"/>
			</g>
			<g>
				<path class="st0" d="M495.97,59.09c4.16,0,7.06,2.87,7.06,7.05c0,4.19-2.96,7.08-7.17,7.08h-4.61v7.33h-3.33V59.09L495.97,59.09
					L495.97,59.09z M491.25,70.41h3.82c2.9,0,4.55-1.56,4.55-4.27c0-2.71-1.65-4.25-4.53-4.25h-3.84V70.41z"/>
				<path class="st0" d="M503.9,76.09c0-2.74,2.1-4.42,5.81-4.62l4.28-0.25v-1.2c0-1.74-1.17-2.78-3.14-2.78
					c-1.86,0-3.02,0.89-3.3,2.29h-3.03c0.18-2.82,2.59-4.91,6.45-4.91c3.79,0,6.21,2.01,6.21,5.14v10.78h-3.08v-2.57h-0.07
					c-0.91,1.74-2.88,2.84-4.94,2.84C506.04,80.81,503.9,78.9,503.9,76.09z M513.99,74.68v-1.23l-3.85,0.24
					c-1.92,0.13-3,0.98-3,2.32c0,1.37,1.13,2.26,2.85,2.26C512.24,78.26,513.99,76.72,513.99,74.68z"/>
				<path class="st0" d="M520.09,86.29v-2.6c0.24,0.06,0.77,0.06,1.04,0.06c1.49,0,2.29-0.62,2.78-2.23c0-0.03,0.28-0.95,0.28-0.97
					l-5.65-15.65h3.48l3.95,12.73h0.06l3.95-12.73h3.39l-5.86,16.46c-1.34,3.79-2.88,5.01-6.12,5.01
					C521.13,86.37,520.33,86.34,520.09,86.29z"/>
			</g>
		</g>
	</g>
</g>
<g>
	<g>
		<path class="st0" d="M107.92,142.96l-4.82,10.44h-0.49v-12.71h-6.84v21.5h5.81c1.52,0,2.91-0.89,3.55-2.27l4.82-10.44h0.49v12.71
			h6.84v-21.5h-5.81C109.94,140.69,108.56,141.58,107.92,142.96"/>
		<path class="st0" d="M82.25,143.52l-2.85,9.88h-0.49l-2.85-9.88c-0.48-1.67-2.02-2.83-3.76-2.83h-6.83v21.51h6.84v-12.71h0.49
			l3.91,12.71h4.89l3.91-12.71H86v12.71h6.84v-21.51H86C84.26,140.69,82.73,141.84,82.25,143.52"/>
		<path class="st0" d="M120.21,150.47v11.73h6.83v-6.84h7.35c3.19,0,5.9-2.04,6.91-4.89H120.21z"/>
		<path class="st0" d="M134.38,140.69h-15.15c0.92,5,5.3,8.8,10.57,8.8h11.77c0.1-0.47,0.15-0.96,0.15-1.47
			C141.71,143.97,138.43,140.69,134.38,140.69"/>
	</g>
	<g>
		<path class="st0" d="M220.62,138.76c-7.06,0-12.68,5.7-12.68,12.68c0,7.06,5.7,12.68,12.68,12.68c6.98,0,12.68-5.7,12.68-12.68
			C233.38,144.46,227.6,138.76,220.62,138.76z M220.62,156.18c-2.57,0-4.74-2.17-4.74-4.74s2.17-4.74,4.74-4.74
			c2.57,0,4.74,2.17,4.74,4.74S223.27,156.18,220.62,156.18z"/>
		<path class="st0" d="M207.94,142.45v18.46h-4.58l-5.78-18.46H207.94z"/>
		<path class="st0" d="M314.93,145.74l-2.81,6.9c-0.08,0.08-0.08,0.24-0.08,0.32l-0.08,0.16l-0.08-0.16c0-0.08-0.08-0.24-0.08-0.32
			l-2.81-6.9h-3.61l4.74,11.8l-2.01,4.5h3.61l6.66-16.29H314.93z"/>
		<path class="st0" d="M288.28,146.39c-0.64-0.48-1.44-0.8-2.41-0.88c-1.61-0.16-3.13,0.4-4.17,1.44v-1.28h-3.29v11.8h3.29v-6.18
			c0-1.36,0.24-1.77,0.48-2.09c0.4-0.64,1.12-0.96,2.01-0.96c0.88,0,1.69,0.4,2.09,1.04c0.24,0.48,0.32,1.12,0.32,1.44
			c0,1.04,0,6.74,0,6.74h3.29v-7.14C289.89,148.47,289.33,147.19,288.28,146.39z"/>
		<path class="st0" d="M272.15,145.82c-1.61-0.56-3.37-0.48-4.98,0.24c-1.04,0.48-2.01,1.28-2.57,2.33c-0.56,0.88-0.8,2.01-0.8,3.21
			s0.24,2.33,0.8,3.21c0.56,0.88,1.28,1.69,2.25,2.17c0.96,0.48,2.09,0.8,3.13,0.8c0.56,0,1.12-0.08,1.69-0.24
			c0.48-0.16,0.96-0.32,1.44-0.56c0.96-0.56,1.77-1.28,2.25-2.17c0.56-0.88,0.8-2.01,0.8-3.21
			C276.24,148.96,274.72,146.71,272.15,145.82z M273.11,151.76c-0.08,1.04-0.4,1.93-1.04,2.49c-0.48,0.4-1.2,0.64-2.09,0.72
			c-0.88,0-1.53-0.24-2.09-0.72c-0.64-0.56-0.96-1.44-1.04-2.49c-0.08-1.2,0.4-2.17,1.28-2.81c0.48-0.32,1.12-0.56,1.77-0.56
			c0.72,0,1.28,0.24,1.85,0.56C272.71,149.52,273.19,150.56,273.11,151.76z"/>
		<path class="st0" d="M260.03,146.39c-0.64-0.48-1.44-0.8-2.41-0.88c-0.16,0-0.4,0-0.56,0c-1.28,0-2.41,0.56-3.37,1.69l-0.16,0.24
			h-0.32c-0.24-0.4-0.56-0.72-0.88-0.96c-0.64-0.48-1.44-0.8-2.41-0.88c-1.53-0.16-2.73,0.32-3.77,1.44v-1.2h-3.29v11.8h3.29v-6.18
			v-0.16c0-1.28,0.16-1.61,0.4-2.01c0.4-0.64,1.12-1.04,1.93-0.96c0.8,0,1.53,0.4,1.93,1.04c0.32,0.48,0.32,1.04,0.32,1.61v6.58
			h3.29v-6.34c0-1.2,0.16-1.61,0.4-2.01c0.4-0.64,1.12-0.96,1.93-0.96c0.8,0,1.44,0.4,1.85,1.04c0.24,0.4,0.32,0.88,0.32,1.2
			c0,0.16,0,0.32,0,0.4v6.58h3.29v-7.22c0-0.64-0.08-1.28-0.24-1.85C261.23,147.59,260.75,146.87,260.03,146.39z"/>
		<path class="st0" d="M302.25,153.93c-0.48,0.48-1.61,1.36-3.13,1.44c-1.28,0.08-2.25-0.32-2.97-1.04
			c-0.32-0.32-0.56-0.8-0.72-1.28h9.07v-0.08c0.08-0.48,0.16-0.88,0.16-1.36c0-0.4-0.08-0.96-0.24-1.69
			c-0.4-1.36-1.2-2.41-2.25-3.21c-1.2-0.88-2.33-1.12-2.65-1.12c-2.33-0.4-4.98,0.64-6.34,2.81c-0.96,1.53-0.88,3.05-0.88,3.53
			c0,0.56,0.08,2.33,1.52,3.93c1.69,1.85,4.01,1.93,4.74,2.01c3.21,0.08,5.38-1.93,5.86-2.33L302.25,153.93z M296.63,148.96
			c0.48-0.32,1.04-0.56,1.77-0.56s1.28,0.24,1.85,0.56c0.48,0.4,0.88,0.88,1.12,1.44h-5.78
			C295.67,149.84,296.07,149.28,296.63,148.96z"/>
	</g>
	<g>
		<path id="Samsung_Pay_1_" class="st0" d="M500.54,142.46v1.21c-1.19-1.02-2.69-1.6-4.25-1.6c-3.86,0-7.01,3.51-7.01,7.82
			s3.12,7.82,7.01,7.82c1.56,0,3.06-0.57,4.25-1.6v1.34h3.21v-15H500.54z M496.24,155.05c-2.48,0-4.51-2.22-4.51-5
			c0-2.78,2.03-4.97,4.51-4.97c2.48,0,4.51,2.22,4.51,5C500.75,152.87,498.73,155.05,496.24,155.05z M478.95,142.05
			c-1.67,0-5.19,1.7-5.19,1.7v-1.28h-3.21v21.42h4.28v-7.49c0.78,1.08,2.42,1.67,4.09,1.7c4.12,0,7.48-3.6,7.48-8.01
			C486.41,145.67,483.11,142.05,478.95,142.05z M478.56,155.05c-2.48,0-4.51-2.22-4.51-5c0-2.78,2.03-5,4.51-5s4.51,2.22,4.51,5
			C483.07,152.83,481.05,155.05,478.56,155.05z M518.54,142.46l-4.51,10.69l-4.81-10.69h-3.48l6.62,14.71l-2.84,6.72h3.44
			l9.02-21.42C521.98,142.46,518.54,142.46,518.54,142.46z M449.13,144.61l0.16,9.64h-0.06l-2.9-9.64h-4.69v12.85h3.21l-0.17-10.71
			h0.07l3.25,10.71h4.35v-12.85H449.13z M388.3,144.61l-2.38,12.85h3.47l1.77-11.78h0.07l1.74,11.78h3.43l-2.38-12.85H388.3z
			 M407.77,144.61l-1.56,9.64h-0.06l-1.53-9.64h-5.33l-0.29,12.85H402l0.06-11.78h0.06l2.1,11.78h3.14l2.07-11.78h0.06l0.07,11.78
			h3.22l-0.29-12.85C412.49,144.61,407.77,144.61,407.77,144.61z M380.98,153.81c0.1,0.33,0.1,0.65,0.03,0.98
			c-0.1,0.42-0.39,0.85-1.27,0.85c-0.82,0-1.31-0.46-1.31-1.18v-1.29h-3.21v0.98c0,2.88,2.06,3.76,4.31,3.76
			c2.15,0,3.89-0.78,4.19-2.94c0.12-0.72,0.12-1.41,0-2.12c-0.51-2.71-5-3.5-5.33-5.03c-0.03-0.23-0.03-0.46,0-0.69
			c0.09-0.42,0.33-0.88,1.08-0.88c0.57-0.07,1.05,0.39,1.11,0.98c0,0.07,0-0.26,0-0.19v0.78h3.21v-0.51c0-2.81-2.52-3.27-4.35-3.27
			c-2.29,0-4.18,0.75-4.51,2.88c-0.13,0.59-0.13,1.18,0,1.76c0.52,2.71,5.1,3.46,5.78,5.13 M422.69,153.81
			c0.1,0.29,0.1,0.62,0.03,0.95c-0.1,0.42-0.39,0.85-1.24,0.85c-0.78,0-1.27-0.46-1.27-1.14v-1.29h-3.21v0.98
			c0,2.84,2.1,3.69,4.32,3.69c2.16,0,3.93-0.78,4.2-2.91c0.12-0.69,0.12-1.41,0-2.09c-0.52-2.65-5.05-3.46-5.36-4.97
			c-0.03-0.23-0.03-0.42,0-0.65c0.09-0.42,0.33-0.85,1.1-0.85c0.55-0.07,1.07,0.39,1.1,0.98c0,0.07,0,0.68,0,0.75v0.78h3.21v-1.45
			c0-2.78-2.48-3.24-4.31-3.24c-2.29,0-4.12,0.75-4.48,2.84c-0.1,0.56-0.1,1.14,0.03,1.73c0.56,2.61,5.1,3.37,5.75,5.03
			 M432.86,155.51c0.59,0.07,1.11-0.36,1.24-0.92c0.03-0.16,0.03-0.33,0.03-0.49v-9.5h3.21v9.25c0,0.23-0.03,0.72-0.03,0.85
			c-0.22,2.42-2,3.2-4.25,3.2c-2.25,0-4.04-0.78-4.25-3.2c0-0.13-0.03-0.62-0.03-0.85v-9.25h3.21v9.5c0,0.16,0,0.33,0.03,0.49
			c0.13,0.59,0.65,0.98,1.24,0.92 M460.64,155.38c0.95,0,1.27-0.59,1.31-0.92c0.03-0.16,0.03-0.33,0.03-0.49v-1.87h-1.07v-2.14h4.28
			v3.46c0,0.23,0,0.42-0.03,0.85c-0.21,2.35-2.38,3.2-4.79,3.2c-2.41,0-4.54-0.85-4.79-3.2c-0.03-0.42-0.03-0.62-0.03-0.85v-4.96
			c0-0.29,0.03-0.56,0.07-0.85c0.31-2.42,2.37-3.2,4.77-3.2c2.4,0,4.49,0.75,4.77,3.2c0.03,0.29,0.03,0.56,0.03,0.85v0.42h-3.21
			v-0.96c-0.38-0.16-0.38-0.33-0.42-0.49c-0.07-0.29-0.29-0.95-1.31-0.95c-0.62-0.07-1.14,0.36-1.27,0.95
			c-0.03,0.2-0.22,0.62-0.22,0.62v5.92c0,0.16,0,0.33,0.03,0.49c0,0.33,0.33,0.92,1.27,0.92"/>
	</g>
</g>
</svg>
